<!DOCTYPE svg PUBLIC "-//W3C//DTD SVG 1.1//EN" "http://www.w3.org/Graphics/SVG/1.1/DTD/svg11.dtd">
<!-- Uploaded to: SVG Repo, www.svgrepo.com, Transformed by: SVG Repo Mixer Tools -->
<svg width="256px" height="256px" viewBox="-8.88 -8.88 41.76 41.76" fill="none" xmlns="http://www.w3.org/2000/svg" transform="rotate(0)" stroke="#ffffff">
<g id="SVGRepo_bgCarrier" stroke-width="0" transform="translate(0,0), scale(1)">
<rect x="-8.88" y="-8.88" width="41.76" height="41.76" rx="20.88" fill="#00bfff" strokewidth="0"/>
</g>
<g id="SVGRepo_tracerCarrier" stroke-linecap="round" stroke-linejoin="round" stroke="#CCCCCC" stroke-width="0.8160000000000001"/>
<g id="SVGRepo_iconCarrier"> <path d="M3 8C3 5.17157 3 3.75736 3.87868 2.87868C4.75736 2 6.17157 2 9 2H15C17.8284 2 19.2426 2 20.1213 2.87868C21 3.75736 21 5.17157 21 8V16C21 18.8284 21 20.2426 20.1213 21.1213C19.2426 22 17.8284 22 15 22H9C6.17157 22 4.75736 22 3.87868 21.1213C3 20.2426 3 18.8284 3 16V8Z" stroke="#ffffff" stroke-width="2.4"/> <path d="M8 2.5V22" stroke="#ffffff" stroke-width="2.4" stroke-linecap="round"/> <path d="M2 12H4" stroke="#ffffff" stroke-width="2.4" stroke-linecap="round"/> <path d="M2 16H4" stroke="#ffffff" stroke-width="2.4" stroke-linecap="round"/> <path d="M2 8H4" stroke="#ffffff" stroke-width="2.4" stroke-linecap="round"/> <path d="M11.5 6.5H16.5" stroke="#ffffff" stroke-width="2.4" stroke-linecap="round"/> <path d="M11.5 10H16.5" stroke="#ffffff" stroke-width="2.4" stroke-linecap="round"/> </g>
</svg>